<mxfile host="app.diagrams.net" modified="2020-03-23T14:02:32.272Z" agent="Mozilla/5.0 (Windows NT 10.0; Win64; x64; rv:74.0) Gecko/20100101 Firefox/74.0" etag="LWwBYp3Of1XM85RHmTJv" version="12.8.9" type="github">
  <diagram id="Qn3-nG2EIfxCC5e99ubx" name="Page-1">
    <mxGraphModel dx="2870" dy="514" grid="1" gridSize="10" guides="1" tooltips="1" connect="1" arrows="1" fold="1" page="0" pageScale="1" pageWidth="1169" pageHeight="827" background="none" math="0" shadow="0">
      <root>
        <mxCell id="0" />
        <mxCell id="1" parent="0" />
        <mxCell id="w2yHV6jO7LddsXgPNAkQ-8" style="edgeStyle=orthogonalEdgeStyle;rounded=0;orthogonalLoop=1;jettySize=auto;html=1;exitX=0.5;exitY=1;exitDx=0;exitDy=0;entryX=0.5;entryY=0;entryDx=0;entryDy=0;" parent="1" source="qTc8x9LIwxy68OP4qptk-10" target="qTc8x9LIwxy68OP4qptk-4" edge="1">
          <mxGeometry relative="1" as="geometry">
            <mxPoint x="60" y="450" as="sourcePoint" />
            <Array as="points">
              <mxPoint x="60" y="490" />
              <mxPoint x="-160" y="490" />
            </Array>
          </mxGeometry>
        </mxCell>
        <mxCell id="w2yHV6jO7LddsXgPNAkQ-10" style="edgeStyle=orthogonalEdgeStyle;rounded=0;orthogonalLoop=1;jettySize=auto;html=1;exitX=0.5;exitY=1;exitDx=0;exitDy=0;entryX=0.5;entryY=0;entryDx=0;entryDy=0;" parent="1" source="qTc8x9LIwxy68OP4qptk-4" target="w2yHV6jO7LddsXgPNAkQ-2" edge="1">
          <mxGeometry relative="1" as="geometry" />
        </mxCell>
        <mxCell id="w2yHV6jO7LddsXgPNAkQ-13" style="edgeStyle=orthogonalEdgeStyle;rounded=0;orthogonalLoop=1;jettySize=auto;html=1;exitX=0.5;exitY=1;exitDx=0;exitDy=0;entryX=0.5;entryY=0;entryDx=0;entryDy=0;" parent="1" source="qTc8x9LIwxy68OP4qptk-4" target="w2yHV6jO7LddsXgPNAkQ-11" edge="1">
          <mxGeometry relative="1" as="geometry" />
        </mxCell>
        <mxCell id="qTc8x9LIwxy68OP4qptk-4" value="Investigate the&lt;br&gt;Explosion" style="rounded=1;whiteSpace=wrap;html=1;" parent="1" vertex="1">
          <mxGeometry x="-240" y="530" width="160" height="80" as="geometry" />
        </mxCell>
        <mxCell id="qTc8x9LIwxy68OP4qptk-5" value="Continue on your Quest" style="rounded=1;whiteSpace=wrap;html=1;" parent="1" vertex="1">
          <mxGeometry x="200" y="850" width="160" height="80" as="geometry" />
        </mxCell>
        <mxCell id="w2yHV6jO7LddsXgPNAkQ-37" style="edgeStyle=orthogonalEdgeStyle;rounded=0;orthogonalLoop=1;jettySize=auto;html=1;exitX=0.5;exitY=1;exitDx=0;exitDy=0;entryX=0.5;entryY=0;entryDx=0;entryDy=0;" parent="1" source="w2yHV6jO7LddsXgPNAkQ-2" target="w2yHV6jO7LddsXgPNAkQ-36" edge="1">
          <mxGeometry relative="1" as="geometry" />
        </mxCell>
        <mxCell id="w2yHV6jO7LddsXgPNAkQ-38" style="edgeStyle=orthogonalEdgeStyle;rounded=0;orthogonalLoop=1;jettySize=auto;html=1;exitX=0.5;exitY=1;exitDx=0;exitDy=0;entryX=0.5;entryY=0;entryDx=0;entryDy=0;" parent="1" source="w2yHV6jO7LddsXgPNAkQ-2" target="w2yHV6jO7LddsXgPNAkQ-35" edge="1">
          <mxGeometry relative="1" as="geometry" />
        </mxCell>
        <mxCell id="w2yHV6jO7LddsXgPNAkQ-2" value="I&#39;m going to hell" style="rounded=1;whiteSpace=wrap;html=1;" parent="1" vertex="1">
          <mxGeometry x="-340" y="690" width="160" height="80" as="geometry" />
        </mxCell>
        <mxCell id="w2yHV6jO7LddsXgPNAkQ-3" value="You see a huge Hole" style="rounded=0;whiteSpace=wrap;html=1;fillColor=#dae8fc;strokeColor=#6c8ebf;" parent="1" vertex="1">
          <mxGeometry x="-220" y="620" width="120" height="60" as="geometry" />
        </mxCell>
        <mxCell id="ga1ZJdMdY6wzrTvUTJqG-1" style="edgeStyle=orthogonalEdgeStyle;rounded=0;orthogonalLoop=1;jettySize=auto;html=1;exitX=0.5;exitY=1;exitDx=0;exitDy=0;entryX=0.5;entryY=0;entryDx=0;entryDy=0;" parent="1" source="w2yHV6jO7LddsXgPNAkQ-11" target="qTc8x9LIwxy68OP4qptk-5" edge="1">
          <mxGeometry relative="1" as="geometry" />
        </mxCell>
        <mxCell id="w2yHV6jO7LddsXgPNAkQ-11" value="Nope!" style="rounded=1;whiteSpace=wrap;html=1;" parent="1" vertex="1">
          <mxGeometry x="-140" y="690" width="160" height="80" as="geometry" />
        </mxCell>
        <mxCell id="w2yHV6jO7LddsXgPNAkQ-18" value="Events" style="rounded=0;whiteSpace=wrap;html=1;fillColor=#dae8fc;strokeColor=#6c8ebf;" parent="1" vertex="1">
          <mxGeometry x="707" width="120" height="80" as="geometry" />
        </mxCell>
        <mxCell id="w2yHV6jO7LddsXgPNAkQ-19" value="Decisions" style="rounded=1;whiteSpace=wrap;html=1;arcSize=23;" parent="1" vertex="1">
          <mxGeometry x="710" y="90" width="117" height="80" as="geometry" />
        </mxCell>
        <mxCell id="w2yHV6jO7LddsXgPNAkQ-21" value="Outcomes" style="shape=parallelogram;perimeter=parallelogramPerimeter;whiteSpace=wrap;html=1;fillColor=#d5e8d4;strokeColor=#82b366;" parent="1" vertex="1">
          <mxGeometry x="707" y="270" width="120" height="80" as="geometry" />
        </mxCell>
        <mxCell id="w2yHV6jO7LddsXgPNAkQ-22" value="You win&lt;br&gt;(Bad Ending)" style="shape=parallelogram;perimeter=parallelogramPerimeter;whiteSpace=wrap;html=1;fillColor=#d5e8d4;strokeColor=#82b366;" parent="1" vertex="1">
          <mxGeometry x="-500" y="1010" width="120" height="60" as="geometry" />
        </mxCell>
        <mxCell id="w2yHV6jO7LddsXgPNAkQ-23" value="You lose&lt;br&gt;(Good Ending)" style="shape=parallelogram;perimeter=parallelogramPerimeter;whiteSpace=wrap;html=1;fillColor=#d5e8d4;strokeColor=#82b366;" parent="1" vertex="1">
          <mxGeometry x="-340" y="1010" width="120" height="60" as="geometry" />
        </mxCell>
        <mxCell id="w2yHV6jO7LddsXgPNAkQ-33" value="You see Satan" style="rounded=0;whiteSpace=wrap;html=1;fillColor=#dae8fc;strokeColor=#6c8ebf;" parent="1" vertex="1">
          <mxGeometry x="-320" y="780" width="120" height="60" as="geometry" />
        </mxCell>
        <mxCell id="w2yHV6jO7LddsXgPNAkQ-35" value="You help him" style="rounded=1;whiteSpace=wrap;html=1;" parent="1" vertex="1">
          <mxGeometry x="-240" y="850" width="160" height="80" as="geometry" />
        </mxCell>
        <mxCell id="w2yHV6jO7LddsXgPNAkQ-39" style="edgeStyle=orthogonalEdgeStyle;rounded=0;orthogonalLoop=1;jettySize=auto;html=1;exitX=0.5;exitY=1;exitDx=0;exitDy=0;entryX=0.5;entryY=0;entryDx=0;entryDy=0;" parent="1" source="w2yHV6jO7LddsXgPNAkQ-36" target="w2yHV6jO7LddsXgPNAkQ-22" edge="1">
          <mxGeometry relative="1" as="geometry" />
        </mxCell>
        <mxCell id="w2yHV6jO7LddsXgPNAkQ-40" style="edgeStyle=orthogonalEdgeStyle;rounded=0;orthogonalLoop=1;jettySize=auto;html=1;exitX=0.5;exitY=1;exitDx=0;exitDy=0;entryX=0.5;entryY=0;entryDx=0;entryDy=0;" parent="1" source="w2yHV6jO7LddsXgPNAkQ-36" target="w2yHV6jO7LddsXgPNAkQ-23" edge="1">
          <mxGeometry relative="1" as="geometry" />
        </mxCell>
        <mxCell id="w2yHV6jO7LddsXgPNAkQ-36" value="You fight him" style="rounded=1;whiteSpace=wrap;html=1;" parent="1" vertex="1">
          <mxGeometry x="-440" y="850" width="160" height="80" as="geometry" />
        </mxCell>
        <mxCell id="w2yHV6jO7LddsXgPNAkQ-17" value="You fight Satan" style="rounded=0;whiteSpace=wrap;html=1;fillColor=#dae8fc;strokeColor=#6c8ebf;" parent="1" vertex="1">
          <mxGeometry x="-420" y="940" width="120" height="60" as="geometry" />
        </mxCell>
        <mxCell id="hGm-7pk2wTPDIRRF_HYG-1" value="Story" style="ellipse;whiteSpace=wrap;html=1;fillColor=#ffe6cc;strokeColor=#d79b00;" parent="1" vertex="1">
          <mxGeometry x="707" y="360" width="120" height="80" as="geometry" />
        </mxCell>
        <mxCell id="hGm-7pk2wTPDIRRF_HYG-8" style="edgeStyle=orthogonalEdgeStyle;rounded=0;orthogonalLoop=1;jettySize=auto;html=1;exitX=0.5;exitY=1;exitDx=0;exitDy=0;entryX=0.5;entryY=0;entryDx=0;entryDy=0;" parent="1" source="hGm-7pk2wTPDIRRF_HYG-2" target="hGm-7pk2wTPDIRRF_HYG-4" edge="1">
          <mxGeometry relative="1" as="geometry" />
        </mxCell>
        <mxCell id="hGm-7pk2wTPDIRRF_HYG-9" style="edgeStyle=orthogonalEdgeStyle;rounded=0;orthogonalLoop=1;jettySize=auto;html=1;exitX=0.5;exitY=1;exitDx=0;exitDy=0;entryX=0.5;entryY=0;entryDx=0;entryDy=0;" parent="1" source="hGm-7pk2wTPDIRRF_HYG-2" target="hGm-7pk2wTPDIRRF_HYG-5" edge="1">
          <mxGeometry relative="1" as="geometry" />
        </mxCell>
        <mxCell id="hGm-7pk2wTPDIRRF_HYG-10" style="edgeStyle=orthogonalEdgeStyle;rounded=0;orthogonalLoop=1;jettySize=auto;html=1;exitX=0.5;exitY=1;exitDx=0;exitDy=0;entryX=0.5;entryY=0;entryDx=0;entryDy=0;" parent="1" source="hGm-7pk2wTPDIRRF_HYG-2" target="hGm-7pk2wTPDIRRF_HYG-6" edge="1">
          <mxGeometry relative="1" as="geometry" />
        </mxCell>
        <mxCell id="hGm-7pk2wTPDIRRF_HYG-2" value="&lt;p style=&quot;line-height: 100%&quot;&gt;So, you&#39;re in the middle of a Toilet-Paper crisis because of unknown reasons. Maybe some God thinks Toilet-Paper is unnatural or something. Everybody is buying Toilet-Paper and now your friend calls you because he is currently sitting on the Toilet and ran out of Toilet-Paper: &quot;Toilet-Paper please!&quot;, he told you. Now he wants you to get him Toilet-Paper.&lt;/p&gt;" style="ellipse;whiteSpace=wrap;html=1;fillColor=#ffe6cc;strokeColor=#d79b00;align=center;" parent="1" vertex="1">
          <mxGeometry x="-90" y="10" width="300" height="160" as="geometry" />
        </mxCell>
        <mxCell id="hGm-7pk2wTPDIRRF_HYG-13" style="edgeStyle=orthogonalEdgeStyle;rounded=0;orthogonalLoop=1;jettySize=auto;html=1;exitX=0.5;exitY=1;exitDx=0;exitDy=0;entryX=0.5;entryY=0;entryDx=0;entryDy=0;" parent="1" source="hGm-7pk2wTPDIRRF_HYG-4" target="hGm-7pk2wTPDIRRF_HYG-12" edge="1">
          <mxGeometry relative="1" as="geometry" />
        </mxCell>
        <mxCell id="hGm-7pk2wTPDIRRF_HYG-4" value="This can&#39;t be true.&lt;br&gt;I have no Friends!" style="rounded=1;whiteSpace=wrap;html=1;" parent="1" vertex="1">
          <mxGeometry x="-160" y="210" width="120" height="60" as="geometry" />
        </mxCell>
        <mxCell id="HRX807A8xVsZpX2Y_Qhh-1" style="edgeStyle=orthogonalEdgeStyle;rounded=0;orthogonalLoop=1;jettySize=auto;html=1;exitX=0.5;exitY=1;exitDx=0;exitDy=0;entryX=0.5;entryY=0;entryDx=0;entryDy=0;" parent="1" source="hGm-7pk2wTPDIRRF_HYG-5" target="OO5MdOur09zsrJe4_zCE-3" edge="1">
          <mxGeometry relative="1" as="geometry" />
        </mxCell>
        <mxCell id="hGm-7pk2wTPDIRRF_HYG-5" value="Maybe later.&lt;br&gt;He can wait." style="rounded=1;whiteSpace=wrap;html=1;" parent="1" vertex="1">
          <mxGeometry y="210" width="120" height="60" as="geometry" />
        </mxCell>
        <mxCell id="HRX807A8xVsZpX2Y_Qhh-2" style="edgeStyle=orthogonalEdgeStyle;rounded=0;orthogonalLoop=1;jettySize=auto;html=1;exitX=0.5;exitY=1;exitDx=0;exitDy=0;entryX=0.5;entryY=0;entryDx=0;entryDy=0;" parent="1" source="hGm-7pk2wTPDIRRF_HYG-6" target="OO5MdOur09zsrJe4_zCE-3" edge="1">
          <mxGeometry relative="1" as="geometry" />
        </mxCell>
        <mxCell id="hGm-7pk2wTPDIRRF_HYG-6" value="I laugh at him for two minutes straight" style="rounded=1;whiteSpace=wrap;html=1;" parent="1" vertex="1">
          <mxGeometry x="161" y="210" width="120" height="60" as="geometry" />
        </mxCell>
        <mxCell id="hGm-7pk2wTPDIRRF_HYG-12" value="He sits there &lt;br&gt;forever waiting&lt;br&gt;(Bad Ending)" style="shape=parallelogram;perimeter=parallelogramPerimeter;whiteSpace=wrap;html=1;fillColor=#d5e8d4;strokeColor=#82b366;" parent="1" vertex="1">
          <mxGeometry x="-160" y="290" width="120" height="60" as="geometry" />
        </mxCell>
        <mxCell id="hGm-7pk2wTPDIRRF_HYG-14" value="He starts calling you furiously and you decide to go get the Toilet-Paper" style="ellipse;whiteSpace=wrap;html=1;fillColor=#ffe6cc;strokeColor=#d79b00;" parent="1" vertex="1">
          <mxGeometry y="290" width="120" height="60" as="geometry" />
        </mxCell>
        <mxCell id="OO5MdOur09zsrJe4_zCE-1" value="Sub-Segments" style="shape=hexagon;perimeter=hexagonPerimeter2;whiteSpace=wrap;html=1;fillColor=#f8cecc;strokeColor=#b85450;" parent="1" vertex="1">
          <mxGeometry x="707" y="180" width="120" height="80" as="geometry" />
        </mxCell>
        <mxCell id="xJ5OwYgdjSTBkFPhT8F--6" style="edgeStyle=orthogonalEdgeStyle;rounded=0;orthogonalLoop=1;jettySize=auto;html=1;exitX=0.5;exitY=1;exitDx=0;exitDy=0;entryX=0.5;entryY=0;entryDx=0;entryDy=0;" parent="1" source="OO5MdOur09zsrJe4_zCE-3" target="qTc8x9LIwxy68OP4qptk-5" edge="1">
          <mxGeometry relative="1" as="geometry" />
        </mxCell>
        <mxCell id="OO5MdOur09zsrJe4_zCE-3" value="The Store" style="shape=hexagon;perimeter=hexagonPerimeter2;whiteSpace=wrap;html=1;fillColor=#f8cecc;strokeColor=#b85450;" parent="1" vertex="1">
          <mxGeometry x="-40" y="370" width="200" height="80" as="geometry" />
        </mxCell>
        <mxCell id="qTc8x9LIwxy68OP4qptk-10" value="Explosion after&lt;br&gt;the Supermarket" style="rounded=0;whiteSpace=wrap;html=1;fillColor=#dae8fc;strokeColor=#6c8ebf;" parent="1" vertex="1">
          <mxGeometry y="470" width="120" height="60" as="geometry" />
        </mxCell>
        <mxCell id="4MemGEek6DB2b53ONelM-1" value="The Store" style="shape=hexagon;perimeter=hexagonPerimeter2;whiteSpace=wrap;html=1;fillColor=#f8cecc;strokeColor=#b85450;" parent="1" vertex="1">
          <mxGeometry x="-1500" y="40" width="200" height="80" as="geometry" />
        </mxCell>
        <mxCell id="4MemGEek6DB2b53ONelM-9" value="&lt;div&gt;You don&#39;t find any toilet paper but you can see a person with &lt;br&gt;&lt;/div&gt;&lt;div&gt;5 toilet paper bags stealing himself away&lt;/div&gt;" style="rounded=0;whiteSpace=wrap;html=1;fillColor=#dae8fc;strokeColor=#6c8ebf;" parent="1" vertex="1">
          <mxGeometry x="-1530" y="390" width="140" height="80" as="geometry" />
        </mxCell>
        <mxCell id="WwWyATiSNRp0P1ia7kzS-32" style="edgeStyle=orthogonalEdgeStyle;rounded=0;orthogonalLoop=1;jettySize=auto;html=1;exitX=0.5;exitY=1;exitDx=0;exitDy=0;entryX=0.5;entryY=0;entryDx=0;entryDy=0;" parent="1" source="WwWyATiSNRp0P1ia7kzS-8" target="WwWyATiSNRp0P1ia7kzS-31" edge="1">
          <mxGeometry relative="1" as="geometry" />
        </mxCell>
        <mxCell id="WwWyATiSNRp0P1ia7kzS-33" style="edgeStyle=orthogonalEdgeStyle;rounded=0;orthogonalLoop=1;jettySize=auto;html=1;exitX=0.5;exitY=1;exitDx=0;exitDy=0;entryX=0.5;entryY=0;entryDx=0;entryDy=0;" parent="1" source="WwWyATiSNRp0P1ia7kzS-8" target="WwWyATiSNRp0P1ia7kzS-30" edge="1">
          <mxGeometry relative="1" as="geometry" />
        </mxCell>
        <mxCell id="WwWyATiSNRp0P1ia7kzS-8" value="When he sees you walking towards him, he runs away" style="rounded=0;whiteSpace=wrap;html=1;" parent="1" vertex="1">
          <mxGeometry x="-1635" y="590" width="120" height="60" as="geometry" />
        </mxCell>
        <mxCell id="WwWyATiSNRp0P1ia7kzS-25" style="edgeStyle=orthogonalEdgeStyle;rounded=0;orthogonalLoop=1;jettySize=auto;html=1;exitX=0.5;exitY=1;exitDx=0;exitDy=0;entryX=0.5;entryY=0;entryDx=0;entryDy=0;" parent="1" source="WwWyATiSNRp0P1ia7kzS-9" target="WwWyATiSNRp0P1ia7kzS-17" edge="1">
          <mxGeometry relative="1" as="geometry" />
        </mxCell>
        <mxCell id="WwWyATiSNRp0P1ia7kzS-9" value="&lt;div&gt;You already regret it not asking him, if he could give you some of the toiletpaper&lt;/div&gt;" style="rounded=1;whiteSpace=wrap;html=1;" parent="1" vertex="1">
          <mxGeometry x="-1218" y="590" width="120" height="60" as="geometry" />
        </mxCell>
        <mxCell id="WwWyATiSNRp0P1ia7kzS-28" style="edgeStyle=orthogonalEdgeStyle;rounded=0;orthogonalLoop=1;jettySize=auto;html=1;exitX=0.5;exitY=1;exitDx=0;exitDy=0;entryX=0.5;entryY=0;entryDx=0;entryDy=0;" parent="1" source="WwWyATiSNRp0P1ia7kzS-17" target="WwWyATiSNRp0P1ia7kzS-27" edge="1">
          <mxGeometry relative="1" as="geometry" />
        </mxCell>
        <mxCell id="xJ5OwYgdjSTBkFPhT8F--2" style="edgeStyle=orthogonalEdgeStyle;rounded=0;orthogonalLoop=1;jettySize=auto;html=1;exitX=0.5;exitY=1;exitDx=0;exitDy=0;entryX=0.5;entryY=0;entryDx=0;entryDy=0;" parent="1" source="WwWyATiSNRp0P1ia7kzS-17" target="WwWyATiSNRp0P1ia7kzS-26" edge="1">
          <mxGeometry relative="1" as="geometry" />
        </mxCell>
        <mxCell id="WwWyATiSNRp0P1ia7kzS-17" value="Don&#39;t ask him" style="rounded=0;whiteSpace=wrap;html=1;" parent="1" vertex="1">
          <mxGeometry x="-1218" y="680" width="120" height="60" as="geometry" />
        </mxCell>
        <mxCell id="WwWyATiSNRp0P1ia7kzS-26" value="Go to the next supermarket" style="rounded=0;whiteSpace=wrap;html=1;" parent="1" vertex="1">
          <mxGeometry x="-1305" y="780" width="120" height="60" as="geometry" />
        </mxCell>
        <mxCell id="WwWyATiSNRp0P1ia7kzS-27" value="Search the supermarket for some other toilet paper" style="rounded=0;whiteSpace=wrap;html=1;" parent="1" vertex="1">
          <mxGeometry x="-1145" y="780" width="120" height="60" as="geometry" />
        </mxCell>
        <mxCell id="WwWyATiSNRp0P1ia7kzS-30" value="&lt;div&gt;Leave him alone&lt;/div&gt;" style="rounded=0;whiteSpace=wrap;html=1;" parent="1" vertex="1">
          <mxGeometry x="-1755" y="690" width="120" height="60" as="geometry" />
        </mxCell>
        <mxCell id="M6KW342iFe4JDzRaZPrO-2" style="edgeStyle=orthogonalEdgeStyle;rounded=0;orthogonalLoop=1;jettySize=auto;html=1;exitX=0.5;exitY=1;exitDx=0;exitDy=0;entryX=0.5;entryY=0;entryDx=0;entryDy=0;" parent="1" source="WwWyATiSNRp0P1ia7kzS-31" target="M6KW342iFe4JDzRaZPrO-1" edge="1">
          <mxGeometry relative="1" as="geometry" />
        </mxCell>
        <mxCell id="WwWyATiSNRp0P1ia7kzS-31" value="Run after him" style="rounded=0;whiteSpace=wrap;html=1;" parent="1" vertex="1">
          <mxGeometry x="-1585" y="690" width="120" height="60" as="geometry" />
        </mxCell>
        <mxCell id="M6KW342iFe4JDzRaZPrO-4" style="edgeStyle=orthogonalEdgeStyle;rounded=0;orthogonalLoop=1;jettySize=auto;html=1;exitX=0.5;exitY=1;exitDx=0;exitDy=0;entryX=0.5;entryY=0;entryDx=0;entryDy=0;" parent="1" source="M6KW342iFe4JDzRaZPrO-1" target="M6KW342iFe4JDzRaZPrO-3" edge="1">
          <mxGeometry relative="1" as="geometry" />
        </mxCell>
        <mxCell id="M6KW342iFe4JDzRaZPrO-1" value="You run after him and after a while he trips and dies because of the fall but now the Toilet-Paper is bloody" style="rounded=0;whiteSpace=wrap;html=1;" parent="1" vertex="1">
          <mxGeometry x="-1605" y="770" width="160" height="110" as="geometry" />
        </mxCell>
        <mxCell id="M6KW342iFe4JDzRaZPrO-7" style="edgeStyle=orthogonalEdgeStyle;rounded=0;orthogonalLoop=1;jettySize=auto;html=1;exitX=0.5;exitY=1;exitDx=0;exitDy=0;entryX=0.5;entryY=0;entryDx=0;entryDy=0;" parent="1" source="M6KW342iFe4JDzRaZPrO-3" target="M6KW342iFe4JDzRaZPrO-5" edge="1">
          <mxGeometry relative="1" as="geometry">
            <Array as="points">
              <mxPoint x="-1535" y="970" />
              <mxPoint x="-1605" y="970" />
            </Array>
          </mxGeometry>
        </mxCell>
        <mxCell id="M6KW342iFe4JDzRaZPrO-8" style="edgeStyle=orthogonalEdgeStyle;rounded=0;orthogonalLoop=1;jettySize=auto;html=1;exitX=0.5;exitY=1;exitDx=0;exitDy=0;entryX=0.5;entryY=0;entryDx=0;entryDy=0;" parent="1" source="M6KW342iFe4JDzRaZPrO-3" target="M6KW342iFe4JDzRaZPrO-6" edge="1">
          <mxGeometry relative="1" as="geometry">
            <Array as="points">
              <mxPoint x="-1535" y="970" />
              <mxPoint x="-1454" y="970" />
            </Array>
          </mxGeometry>
        </mxCell>
        <mxCell id="M6KW342iFe4JDzRaZPrO-3" value="Do you wanna give the toilet paper to your friend?" style="rounded=0;whiteSpace=wrap;html=1;" parent="1" vertex="1">
          <mxGeometry x="-1595" y="900" width="120" height="60" as="geometry" />
        </mxCell>
        <mxCell id="M6KW342iFe4JDzRaZPrO-13" style="edgeStyle=orthogonalEdgeStyle;rounded=0;orthogonalLoop=1;jettySize=auto;html=1;exitX=0.5;exitY=1;exitDx=0;exitDy=0;" parent="1" source="M6KW342iFe4JDzRaZPrO-5" target="M6KW342iFe4JDzRaZPrO-12" edge="1">
          <mxGeometry relative="1" as="geometry" />
        </mxCell>
        <mxCell id="M6KW342iFe4JDzRaZPrO-14" style="edgeStyle=orthogonalEdgeStyle;rounded=0;orthogonalLoop=1;jettySize=auto;html=1;exitX=0.5;exitY=1;exitDx=0;exitDy=0;" parent="1" source="M6KW342iFe4JDzRaZPrO-5" target="M6KW342iFe4JDzRaZPrO-11" edge="1">
          <mxGeometry relative="1" as="geometry">
            <Array as="points">
              <mxPoint x="-1605" y="1070" />
              <mxPoint x="-1605" y="1070" />
            </Array>
          </mxGeometry>
        </mxCell>
        <mxCell id="M6KW342iFe4JDzRaZPrO-15" style="edgeStyle=orthogonalEdgeStyle;rounded=0;orthogonalLoop=1;jettySize=auto;html=1;exitX=0.5;exitY=1;exitDx=0;exitDy=0;entryX=0.5;entryY=0;entryDx=0;entryDy=0;" parent="1" source="M6KW342iFe4JDzRaZPrO-5" target="M6KW342iFe4JDzRaZPrO-10" edge="1">
          <mxGeometry relative="1" as="geometry" />
        </mxCell>
        <mxCell id="M6KW342iFe4JDzRaZPrO-5" value="Sure, toilet paper is toilet paper " style="rounded=0;whiteSpace=wrap;html=1;" parent="1" vertex="1">
          <mxGeometry x="-1665" y="980" width="120" height="60" as="geometry" />
        </mxCell>
        <mxCell id="xJ5OwYgdjSTBkFPhT8F--1" style="edgeStyle=orthogonalEdgeStyle;rounded=0;orthogonalLoop=1;jettySize=auto;html=1;exitX=0.5;exitY=1;exitDx=0;exitDy=0;entryX=0.5;entryY=0;entryDx=0;entryDy=0;" parent="1" source="M6KW342iFe4JDzRaZPrO-6" target="WwWyATiSNRp0P1ia7kzS-26" edge="1">
          <mxGeometry relative="1" as="geometry" />
        </mxCell>
        <mxCell id="M6KW342iFe4JDzRaZPrO-6" value="Nah, too bloody" style="rounded=0;whiteSpace=wrap;html=1;" parent="1" vertex="1">
          <mxGeometry x="-1514" y="980" width="120" height="60" as="geometry" />
        </mxCell>
        <mxCell id="M6KW342iFe4JDzRaZPrO-20" style="edgeStyle=orthogonalEdgeStyle;rounded=0;orthogonalLoop=1;jettySize=auto;html=1;exitX=0.5;exitY=1;exitDx=0;exitDy=0;entryX=0.5;entryY=0;entryDx=0;entryDy=0;" parent="1" source="M6KW342iFe4JDzRaZPrO-10" target="M6KW342iFe4JDzRaZPrO-17" edge="1">
          <mxGeometry relative="1" as="geometry" />
        </mxCell>
        <mxCell id="M6KW342iFe4JDzRaZPrO-10" value="&lt;div&gt;Walk to your friends house&lt;/div&gt;" style="rounded=0;whiteSpace=wrap;html=1;" parent="1" vertex="1">
          <mxGeometry x="-1805" y="1080" width="120" height="60" as="geometry" />
        </mxCell>
        <mxCell id="M6KW342iFe4JDzRaZPrO-24" style="edgeStyle=orthogonalEdgeStyle;rounded=0;orthogonalLoop=1;jettySize=auto;html=1;exitX=0.5;exitY=1;exitDx=0;exitDy=0;entryX=0.5;entryY=0;entryDx=0;entryDy=0;" parent="1" source="M6KW342iFe4JDzRaZPrO-11" target="M6KW342iFe4JDzRaZPrO-22" edge="1">
          <mxGeometry relative="1" as="geometry" />
        </mxCell>
        <mxCell id="M6KW342iFe4JDzRaZPrO-11" value="Take the Bus" style="rounded=0;whiteSpace=wrap;html=1;" parent="1" vertex="1">
          <mxGeometry x="-1675" y="1080" width="120" height="60" as="geometry" />
        </mxCell>
        <mxCell id="M6KW342iFe4JDzRaZPrO-26" style="edgeStyle=orthogonalEdgeStyle;rounded=0;orthogonalLoop=1;jettySize=auto;html=1;exitX=0.5;exitY=1;exitDx=0;exitDy=0;entryX=0.5;entryY=0;entryDx=0;entryDy=0;" parent="1" source="M6KW342iFe4JDzRaZPrO-12" target="M6KW342iFe4JDzRaZPrO-25" edge="1">
          <mxGeometry relative="1" as="geometry">
            <Array as="points">
              <mxPoint x="-1485" y="1150" />
              <mxPoint x="-1445" y="1150" />
            </Array>
          </mxGeometry>
        </mxCell>
        <mxCell id="M6KW342iFe4JDzRaZPrO-12" value="Take the car" style="rounded=0;whiteSpace=wrap;html=1;" parent="1" vertex="1">
          <mxGeometry x="-1545" y="1080" width="120" height="60" as="geometry" />
        </mxCell>
        <mxCell id="M6KW342iFe4JDzRaZPrO-19" style="edgeStyle=orthogonalEdgeStyle;rounded=0;orthogonalLoop=1;jettySize=auto;html=1;exitX=0.5;exitY=1;exitDx=0;exitDy=0;entryX=0.5;entryY=0;entryDx=0;entryDy=0;" parent="1" source="M6KW342iFe4JDzRaZPrO-17" target="M6KW342iFe4JDzRaZPrO-18" edge="1">
          <mxGeometry relative="1" as="geometry" />
        </mxCell>
        <mxCell id="M6KW342iFe4JDzRaZPrO-17" value="&lt;div&gt;While walking to your friends house,&lt;/div&gt;&lt;div&gt;you get squashed to little pieces by a raging mob.&lt;/div&gt;&lt;div&gt;The lucky guy who got the toilet-paper from you also got killed, and the next guy also... Until the whole world killed itself.&lt;/div&gt;&lt;div&gt; And all of that only because of toilet-paper&lt;/div&gt;" style="rounded=0;whiteSpace=wrap;html=1;" parent="1" vertex="1">
          <mxGeometry x="-1815" y="1160" width="130" height="200" as="geometry" />
        </mxCell>
        <mxCell id="M6KW342iFe4JDzRaZPrO-18" value="happy end (you eliminated earth)" style="rounded=0;whiteSpace=wrap;html=1;" parent="1" vertex="1">
          <mxGeometry x="-1805" y="1370" width="120" height="60" as="geometry" />
        </mxCell>
        <mxCell id="M6KW342iFe4JDzRaZPrO-21" style="edgeStyle=orthogonalEdgeStyle;rounded=0;orthogonalLoop=1;jettySize=auto;html=1;exitX=0.5;exitY=1;exitDx=0;exitDy=0;entryX=0.5;entryY=0;entryDx=0;entryDy=0;" parent="1" source="M6KW342iFe4JDzRaZPrO-22" target="M6KW342iFe4JDzRaZPrO-23" edge="1">
          <mxGeometry relative="1" as="geometry" />
        </mxCell>
        <mxCell id="M6KW342iFe4JDzRaZPrO-22" value="&lt;div&gt;While taking the bus to your friends house,&lt;/div&gt;&lt;div&gt;the bus gets squashed to little pieces by a raging mob.&lt;br&gt;&lt;/div&gt;&lt;div&gt;The lucky guy who got the toilet-paper from you also got killed, and the next guy also... Until the whole world killed itself. And all of that only because of toilet-paper&lt;br&gt;&lt;/div&gt;" style="rounded=0;whiteSpace=wrap;html=1;" parent="1" vertex="1">
          <mxGeometry x="-1675" y="1160" width="150" height="190" as="geometry" />
        </mxCell>
        <mxCell id="M6KW342iFe4JDzRaZPrO-23" value="happy end (you eliminated earth)" style="rounded=0;whiteSpace=wrap;html=1;" parent="1" vertex="1">
          <mxGeometry x="-1660" y="1370" width="120" height="60" as="geometry" />
        </mxCell>
        <mxCell id="M6KW342iFe4JDzRaZPrO-31" style="edgeStyle=orthogonalEdgeStyle;rounded=0;orthogonalLoop=1;jettySize=auto;html=1;exitX=0.5;exitY=1;exitDx=0;exitDy=0;entryX=0.5;entryY=0;entryDx=0;entryDy=0;" parent="1" source="M6KW342iFe4JDzRaZPrO-25" target="M6KW342iFe4JDzRaZPrO-30" edge="1">
          <mxGeometry relative="1" as="geometry" />
        </mxCell>
        <mxCell id="M6KW342iFe4JDzRaZPrO-32" style="edgeStyle=orthogonalEdgeStyle;rounded=0;orthogonalLoop=1;jettySize=auto;html=1;exitX=0.5;exitY=1;exitDx=0;exitDy=0;entryX=0.5;entryY=0;entryDx=0;entryDy=0;" parent="1" source="M6KW342iFe4JDzRaZPrO-25" target="M6KW342iFe4JDzRaZPrO-27" edge="1">
          <mxGeometry relative="1" as="geometry" />
        </mxCell>
        <mxCell id="M6KW342iFe4JDzRaZPrO-33" style="edgeStyle=orthogonalEdgeStyle;rounded=0;orthogonalLoop=1;jettySize=auto;html=1;exitX=0.5;exitY=1;exitDx=0;exitDy=0;entryX=0.441;entryY=-0.031;entryDx=0;entryDy=0;entryPerimeter=0;" parent="1" source="M6KW342iFe4JDzRaZPrO-25" target="M6KW342iFe4JDzRaZPrO-28" edge="1">
          <mxGeometry relative="1" as="geometry" />
        </mxCell>
        <mxCell id="M6KW342iFe4JDzRaZPrO-34" style="edgeStyle=orthogonalEdgeStyle;rounded=0;orthogonalLoop=1;jettySize=auto;html=1;exitX=0.5;exitY=1;exitDx=0;exitDy=0;" parent="1" source="M6KW342iFe4JDzRaZPrO-25" target="M6KW342iFe4JDzRaZPrO-29" edge="1">
          <mxGeometry relative="1" as="geometry" />
        </mxCell>
        <mxCell id="M6KW342iFe4JDzRaZPrO-25" value="&lt;div&gt;You didn&#39;t take your car.. badluck&lt;/div&gt;" style="rounded=0;whiteSpace=wrap;html=1;" parent="1" vertex="1">
          <mxGeometry x="-1505" y="1160" width="120" height="60" as="geometry" />
        </mxCell>
        <mxCell id="M6KW342iFe4JDzRaZPrO-39" style="edgeStyle=orthogonalEdgeStyle;rounded=0;orthogonalLoop=1;jettySize=auto;html=1;exitX=0.5;exitY=1;exitDx=0;exitDy=0;entryX=0.5;entryY=0;entryDx=0;entryDy=0;" parent="1" source="M6KW342iFe4JDzRaZPrO-27" target="M6KW342iFe4JDzRaZPrO-38" edge="1">
          <mxGeometry relative="1" as="geometry" />
        </mxCell>
        <mxCell id="M6KW342iFe4JDzRaZPrO-27" value="leave the toilet paper in the shelf and hope nobody takes it" style="rounded=0;whiteSpace=wrap;html=1;" parent="1" vertex="1">
          <mxGeometry x="-1355" y="1280" width="120" height="60" as="geometry" />
        </mxCell>
        <mxCell id="M6KW342iFe4JDzRaZPrO-48" style="edgeStyle=orthogonalEdgeStyle;rounded=0;orthogonalLoop=1;jettySize=auto;html=1;exitX=0.5;exitY=1;exitDx=0;exitDy=0;" parent="1" source="M6KW342iFe4JDzRaZPrO-28" target="M6KW342iFe4JDzRaZPrO-47" edge="1">
          <mxGeometry relative="1" as="geometry">
            <mxPoint x="-1157" y="1370" as="targetPoint" />
            <Array as="points">
              <mxPoint x="-1157" y="1340" />
            </Array>
          </mxGeometry>
        </mxCell>
        <mxCell id="M6KW342iFe4JDzRaZPrO-28" value="Let the toilet paper at the cashier, while you get the car" style="rounded=0;whiteSpace=wrap;html=1;" parent="1" vertex="1">
          <mxGeometry x="-1215" y="1280" width="120" height="60" as="geometry" />
        </mxCell>
        <mxCell id="M6KW342iFe4JDzRaZPrO-37" style="edgeStyle=orthogonalEdgeStyle;rounded=0;orthogonalLoop=1;jettySize=auto;html=1;exitX=0.5;exitY=1;exitDx=0;exitDy=0;entryX=0;entryY=0.5;entryDx=0;entryDy=0;" parent="1" source="M6KW342iFe4JDzRaZPrO-29" target="M6KW342iFe4JDzRaZPrO-10" edge="1">
          <mxGeometry relative="1" as="geometry">
            <Array as="points">
              <mxPoint x="-1015" y="1470" />
              <mxPoint x="-1825" y="1470" />
              <mxPoint x="-1825" y="1110" />
            </Array>
          </mxGeometry>
        </mxCell>
        <mxCell id="M6KW342iFe4JDzRaZPrO-29" value="Walk" style="rounded=0;whiteSpace=wrap;html=1;" parent="1" vertex="1">
          <mxGeometry x="-1075" y="1280" width="120" height="60" as="geometry" />
        </mxCell>
        <mxCell id="M6KW342iFe4JDzRaZPrO-35" style="edgeStyle=orthogonalEdgeStyle;rounded=0;orthogonalLoop=1;jettySize=auto;html=1;exitX=0.5;exitY=1;exitDx=0;exitDy=0;" parent="1" source="M6KW342iFe4JDzRaZPrO-30" target="M6KW342iFe4JDzRaZPrO-11" edge="1">
          <mxGeometry relative="1" as="geometry">
            <Array as="points">
              <mxPoint x="-1435" y="1530" />
              <mxPoint x="-1865" y="1530" />
              <mxPoint x="-1865" y="1050" />
              <mxPoint x="-1605" y="1050" />
            </Array>
          </mxGeometry>
        </mxCell>
        <mxCell id="M6KW342iFe4JDzRaZPrO-30" value="Take the bus" style="rounded=0;whiteSpace=wrap;html=1;" parent="1" vertex="1">
          <mxGeometry x="-1495" y="1280" width="120" height="60" as="geometry" />
        </mxCell>
        <mxCell id="xJ5OwYgdjSTBkFPhT8F--4" style="edgeStyle=orthogonalEdgeStyle;rounded=0;orthogonalLoop=1;jettySize=auto;html=1;exitX=0.5;exitY=1;exitDx=0;exitDy=0;entryX=0.5;entryY=0;entryDx=0;entryDy=0;" parent="1" source="M6KW342iFe4JDzRaZPrO-38" target="WwWyATiSNRp0P1ia7kzS-26" edge="1">
          <mxGeometry relative="1" as="geometry">
            <Array as="points">
              <mxPoint x="-1295" y="1460" />
              <mxPoint x="-1225" y="1460" />
              <mxPoint x="-1225" y="1110" />
              <mxPoint x="-1325" y="1110" />
              <mxPoint x="-1325" y="760" />
              <mxPoint x="-1245" y="760" />
            </Array>
          </mxGeometry>
        </mxCell>
        <mxCell id="M6KW342iFe4JDzRaZPrO-38" value="&lt;div&gt;You go to get your car&lt;br&gt;&lt;/div&gt;&lt;div&gt;And spoiler alert:&lt;/div&gt;&lt;div&gt;The toilet paper is gone&lt;br&gt; &lt;/div&gt;" style="rounded=0;whiteSpace=wrap;html=1;" parent="1" vertex="1">
          <mxGeometry x="-1355" y="1380" width="120" height="60" as="geometry" />
        </mxCell>
        <mxCell id="M6KW342iFe4JDzRaZPrO-52" style="edgeStyle=orthogonalEdgeStyle;rounded=0;orthogonalLoop=1;jettySize=auto;html=1;exitX=0.5;exitY=1;exitDx=0;exitDy=0;entryX=0.5;entryY=0;entryDx=0;entryDy=0;" edge="1" parent="1" source="M6KW342iFe4JDzRaZPrO-47" target="M6KW342iFe4JDzRaZPrO-51">
          <mxGeometry relative="1" as="geometry" />
        </mxCell>
        <mxCell id="M6KW342iFe4JDzRaZPrO-47" value="The cashier keeps the toilet paper, until you&#39;re back" style="rounded=0;whiteSpace=wrap;html=1;" parent="1" vertex="1">
          <mxGeometry x="-1215" y="1380" width="120" height="60" as="geometry" />
        </mxCell>
        <mxCell id="M6KW342iFe4JDzRaZPrO-49" value="That&#39;s probably all of the toilet-paper there is in the supermarket" style="rounded=0;whiteSpace=wrap;html=1;" parent="1" vertex="1">
          <mxGeometry x="-1425" y="830" width="120" height="60" as="geometry" />
        </mxCell>
        <mxCell id="6DiMKuQ_fRoN0keim-UP-1" value="I head to the toilet-paper shelf" style="rounded=1;whiteSpace=wrap;html=1;" parent="1" vertex="1">
          <mxGeometry x="-1450" y="150" width="120" height="60" as="geometry" />
        </mxCell>
        <mxCell id="JG3rJxFggoxqtPLCYrr8-17" style="edgeStyle=orthogonalEdgeStyle;rounded=0;orthogonalLoop=1;jettySize=auto;html=1;exitX=0.5;exitY=1;exitDx=0;exitDy=0;entryX=0.5;entryY=0;entryDx=0;entryDy=0;" edge="1" parent="1" source="6DiMKuQ_fRoN0keim-UP-3" target="JG3rJxFggoxqtPLCYrr8-8">
          <mxGeometry relative="1" as="geometry" />
        </mxCell>
        <mxCell id="JG3rJxFggoxqtPLCYrr8-18" style="edgeStyle=orthogonalEdgeStyle;rounded=0;orthogonalLoop=1;jettySize=auto;html=1;exitX=0.5;exitY=1;exitDx=0;exitDy=0;entryX=0.5;entryY=0;entryDx=0;entryDy=0;" edge="1" parent="1" source="6DiMKuQ_fRoN0keim-UP-3" target="JG3rJxFggoxqtPLCYrr8-9">
          <mxGeometry relative="1" as="geometry" />
        </mxCell>
        <mxCell id="6DiMKuQ_fRoN0keim-UP-3" value="I ask the people in the store where the toilet paper is?" style="rounded=1;whiteSpace=wrap;html=1;" parent="1" vertex="1">
          <mxGeometry x="-1600" y="150" width="120" height="60" as="geometry" />
        </mxCell>
        <mxCell id="M6KW342iFe4JDzRaZPrO-56" style="edgeStyle=orthogonalEdgeStyle;rounded=0;orthogonalLoop=1;jettySize=auto;html=1;exitX=0.5;exitY=1;exitDx=0;exitDy=0;entryX=1;entryY=0.5;entryDx=0;entryDy=0;" edge="1" parent="1" source="M6KW342iFe4JDzRaZPrO-51" target="M6KW342iFe4JDzRaZPrO-54">
          <mxGeometry relative="1" as="geometry" />
        </mxCell>
        <mxCell id="M6KW342iFe4JDzRaZPrO-58" style="edgeStyle=orthogonalEdgeStyle;rounded=0;orthogonalLoop=1;jettySize=auto;html=1;exitX=0.5;exitY=1;exitDx=0;exitDy=0;entryX=0;entryY=0.5;entryDx=0;entryDy=0;" edge="1" parent="1" source="M6KW342iFe4JDzRaZPrO-51" target="M6KW342iFe4JDzRaZPrO-55">
          <mxGeometry relative="1" as="geometry" />
        </mxCell>
        <mxCell id="M6KW342iFe4JDzRaZPrO-51" value="Are you sure that you want to give the toilet paper to your friend? " style="rounded=0;whiteSpace=wrap;html=1;" parent="1" vertex="1">
          <mxGeometry x="-1215" y="1500" width="120" height="60" as="geometry" />
        </mxCell>
        <mxCell id="M6KW342iFe4JDzRaZPrO-64" style="edgeStyle=orthogonalEdgeStyle;rounded=0;orthogonalLoop=1;jettySize=auto;html=1;exitX=0.5;exitY=1;exitDx=0;exitDy=0;entryX=0.5;entryY=0;entryDx=0;entryDy=0;" edge="1" parent="1" source="M6KW342iFe4JDzRaZPrO-54" target="M6KW342iFe4JDzRaZPrO-63">
          <mxGeometry relative="1" as="geometry" />
        </mxCell>
        <mxCell id="M6KW342iFe4JDzRaZPrO-54" value="Yes, why are you asking?" style="rounded=0;whiteSpace=wrap;html=1;" vertex="1" parent="1">
          <mxGeometry x="-1325" y="1590" width="120" height="60" as="geometry" />
        </mxCell>
        <mxCell id="JG3rJxFggoxqtPLCYrr8-1" value="&lt;div&gt;You lose, because you are not a millionare&lt;/div&gt;&lt;div&gt;and you can&#39;t afford eating the most valuable food in the world&lt;br&gt;&lt;/div&gt;" style="shape=parallelogram;perimeter=parallelogramPerimeter;whiteSpace=wrap;html=1;fillColor=#d5e8d4;strokeColor=#82b366;" vertex="1" parent="1">
          <mxGeometry x="-1320" y="230" width="180" height="80" as="geometry" />
        </mxCell>
        <mxCell id="JG3rJxFggoxqtPLCYrr8-5" value="You go home, because you have a spontaneous need for my Toilet-Paper breakfast" style="rounded=1;whiteSpace=wrap;html=1;" vertex="1" parent="1">
          <mxGeometry x="-1310" y="150" width="120" height="60" as="geometry" />
        </mxCell>
        <mxCell id="JG3rJxFggoxqtPLCYrr8-7" style="edgeStyle=orthogonalEdgeStyle;rounded=0;orthogonalLoop=1;jettySize=auto;html=1;exitX=0.5;exitY=1;exitDx=0;exitDy=0;entryX=1;entryY=0.5;entryDx=0;entryDy=0;" edge="1" parent="1" source="M6KW342iFe4JDzRaZPrO-55" target="M6KW342iFe4JDzRaZPrO-49">
          <mxGeometry relative="1" as="geometry">
            <Array as="points">
              <mxPoint x="-1055" y="1670" />
              <mxPoint x="-915" y="1670" />
              <mxPoint x="-915" y="860" />
            </Array>
          </mxGeometry>
        </mxCell>
        <mxCell id="M6KW342iFe4JDzRaZPrO-55" value="No, not really" style="rounded=0;whiteSpace=wrap;html=1;" vertex="1" parent="1">
          <mxGeometry x="-1115" y="1590" width="120" height="60" as="geometry" />
        </mxCell>
        <mxCell id="M6KW342iFe4JDzRaZPrO-66" style="edgeStyle=orthogonalEdgeStyle;rounded=0;orthogonalLoop=1;jettySize=auto;html=1;exitX=0.5;exitY=1;exitDx=0;exitDy=0;" edge="1" parent="1" source="M6KW342iFe4JDzRaZPrO-63" target="M6KW342iFe4JDzRaZPrO-65">
          <mxGeometry relative="1" as="geometry" />
        </mxCell>
        <mxCell id="M6KW342iFe4JDzRaZPrO-63" value="You drive to your friends house" style="rounded=0;whiteSpace=wrap;html=1;" vertex="1" parent="1">
          <mxGeometry x="-1325" y="1690" width="120" height="60" as="geometry" />
        </mxCell>
        <mxCell id="M6KW342iFe4JDzRaZPrO-65" value="You knock on his door" style="rounded=0;whiteSpace=wrap;html=1;" vertex="1" parent="1">
          <mxGeometry x="-1325" y="1780" width="120" height="60" as="geometry" />
        </mxCell>
        <mxCell id="M6KW342iFe4JDzRaZPrO-69" value="He stands there in underpants and first looks at the toilet paper, then back to you, then back to the toilet paper and says why is the toilet-paper full with blood?" style="rounded=0;whiteSpace=wrap;html=1;" vertex="1" parent="1">
          <mxGeometry x="-1325" y="1850" width="120" height="130" as="geometry" />
        </mxCell>
        <mxCell id="M6KW342iFe4JDzRaZPrO-75" value="hmm" style="rounded=1;whiteSpace=wrap;html=1;" vertex="1" parent="1">
          <mxGeometry x="-1595" y="2000" width="120" height="60" as="geometry" />
        </mxCell>
        <mxCell id="M6KW342iFe4JDzRaZPrO-76" value="uhh" style="rounded=1;whiteSpace=wrap;html=1;" vertex="1" parent="1">
          <mxGeometry x="-1425" y="2000" width="120" height="60" as="geometry" />
        </mxCell>
        <mxCell id="M6KW342iFe4JDzRaZPrO-77" value="idk" style="rounded=1;whiteSpace=wrap;html=1;" vertex="1" parent="1">
          <mxGeometry x="-1245" y="2000" width="120" height="60" as="geometry" />
        </mxCell>
        <mxCell id="M6KW342iFe4JDzRaZPrO-78" value="dunno" style="rounded=1;whiteSpace=wrap;html=1;" vertex="1" parent="1">
          <mxGeometry x="-1075" y="2000" width="120" height="60" as="geometry" />
        </mxCell>
        <mxCell id="JG3rJxFggoxqtPLCYrr8-19" style="edgeStyle=orthogonalEdgeStyle;rounded=0;orthogonalLoop=1;jettySize=auto;html=1;exitX=0.5;exitY=1;exitDx=0;exitDy=0;entryX=0.5;entryY=0;entryDx=0;entryDy=0;" edge="1" parent="1" source="JG3rJxFggoxqtPLCYrr8-8" target="JG3rJxFggoxqtPLCYrr8-14">
          <mxGeometry relative="1" as="geometry" />
        </mxCell>
        <mxCell id="M6KW342iFe4JDzRaZPrO-79" value="I put some ketchup on it" style="rounded=1;whiteSpace=wrap;html=1;" vertex="1" parent="1">
          <mxGeometry x="-740" y="2040" width="120" height="60" as="geometry" />
        </mxCell>
        <mxCell id="JG3rJxFggoxqtPLCYrr8-8" value="You give up" style="rounded=1;whiteSpace=wrap;html=1;" vertex="1" parent="1">
          <mxGeometry x="-1680" y="310" width="120" height="60" as="geometry" />
        </mxCell>
        <mxCell id="M6KW342iFe4JDzRaZPrO-80" value="I&#39;ll tell him the story" style="rounded=1;whiteSpace=wrap;html=1;arcSize=13;" vertex="1" parent="1">
          <mxGeometry x="-1570" y="2040" width="120" height="60" as="geometry" />
        </mxCell>
        <mxCell id="JG3rJxFggoxqtPLCYrr8-9" value="You still look" style="rounded=1;whiteSpace=wrap;html=1;" vertex="1" parent="1">
          <mxGeometry x="-1520" y="310" width="120" height="60" as="geometry" />
        </mxCell>
        <mxCell id="JG3rJxFggoxqtPLCYrr8-14" value="&lt;div&gt;Your shoots you&lt;/div&gt;&lt;div&gt;(Bad ending)&lt;br&gt;&lt;/div&gt;" style="shape=parallelogram;perimeter=parallelogramPerimeter;whiteSpace=wrap;html=1;rounded=1;arcSize=0;fillColor=#d5e8d4;strokeColor=#82b366;" vertex="1" parent="1">
          <mxGeometry x="-1680" y="390" width="120" height="60" as="geometry" />
        </mxCell>
        <mxCell id="4MemGEek6DB2b53ONelM-8" value="They tell you there is no toilet paper anymore" style="rounded=0;whiteSpace=wrap;html=1;fillColor=#dae8fc;strokeColor=#6c8ebf;" parent="1" vertex="1">
          <mxGeometry x="-1600" y="230" width="120" height="60" as="geometry" />
        </mxCell>
        <mxCell id="JG3rJxFggoxqtPLCYrr8-20" value="Mind your own business" style="rounded=1;whiteSpace=wrap;html=1;" vertex="1" parent="1">
          <mxGeometry x="-1440" y="490" width="120" height="60" as="geometry" />
        </mxCell>
        <mxCell id="JG3rJxFggoxqtPLCYrr8-21" value="Question him" style="rounded=1;whiteSpace=wrap;html=1;" vertex="1" parent="1">
          <mxGeometry x="-1600" y="490" width="120" height="60" as="geometry" />
        </mxCell>
      </root>
    </mxGraphModel>
  </diagram>
</mxfile>
